PathFileType	4	(X/Y/Z)	D:\TRACE\v60_Jaco2_6-2-23\v60_baseline_4-platform.trc
DataRate	CameraRate	NumFrames	NumMarkers	Units	OrigDataRate	OrigDataStartFrame	OrigNumFrames
100.00	100.00	      49	5	mm	100.00	4876	      6500
Frame#	Time	Left_Front			Right_Front			Left_Aft			Right_Aft			Post			
		X1	Y1	Z1	X2	Y2	Z2	X3	Y3	Z3	X4	Y4	Z4	X5	Y5	Z5	

4876	48.750	-800.60254	8.92424	-638.76147	769.51483	9.97494	-644.31036	-708.69800	7.91585	496.13989	733.56635	7.04318	505.86362	-14.27850	1308.22681	-961.52740	
4877	48.760	-800.63165	8.69447	-638.81622	769.37860	10.02967	-644.36792	-708.75122	7.98168	496.13635	733.51691	7.00615	505.85034	-14.18288	1308.08386	-961.32257	
4878	48.770	-800.57367	8.65495	-638.89362	769.37213	10.18895	-644.39166	-708.70245	7.96510	496.10184	733.54913	7.03965	505.85168	-14.08314	1308.03992	-961.15930	
4879	48.780	-800.52362	8.88452	-638.83478	769.46918	10.08738	-644.36688	-708.64270	7.96701	496.08771	733.52881	7.04528	505.85178	-14.09717	1308.04663	-961.32684	
4880	48.790	-800.49249	9.07332	-638.77325	769.44232	10.09653	-644.37744	-708.63989	7.96005	496.09158	733.59601	7.05189	505.84750	-14.11776	1308.12903	-961.61237	
4881	48.800	-800.53845	8.95821	-638.80548	769.46448	10.11649	-644.33148	-708.67780	8.03181	496.08536	733.59888	7.05928	505.88599	-14.03749	1308.21191	-962.02551	
4882	48.810	-800.64581	8.85195	-638.75159	769.44507	10.15469	-644.35944	-708.75977	7.92210	496.12894	733.52875	7.03944	505.89020	-14.01066	1308.26953	-962.27350	
4883	48.820	-800.63092	8.79165	-638.79993	769.44348	10.10109	-644.33398	-708.75549	7.85609	496.06216	733.42035	6.91174	505.90115	-14.02669	1308.24817	-962.34778	
4884	48.830	-800.53241	8.93772	-638.74164	769.38257	10.08606	-644.36707	-708.52747	7.54472	496.14075	733.36847	6.91473	505.93228	-13.96648	1308.26770	-962.29089	
4885	48.840	-800.45544	9.04525	-638.82867	769.46185	10.10983	-644.33124	-708.47510	7.63486	496.11136	733.43823	6.96739	505.90265	-14.03688	1308.33276	-962.19006	
4886	48.850	-800.52307	9.06698	-638.72662	769.43518	10.21930	-644.36707	-708.50500	7.73788	496.13068	733.65784	7.08771	505.85364	-14.13029	1308.28174	-961.89777	
4887	48.860	-800.51123	8.92322	-638.77301	769.44153	10.19476	-644.36835	-708.48199	7.70819	496.12491	733.63513	7.13520	505.85306	-14.12290	1308.18762	-961.56964	
4888	48.870	-800.62244	8.88204	-638.79327	769.50201	10.12903	-644.35120	-708.59247	7.67677	496.10248	733.59216	7.04955	505.84848	-14.10965	1308.07593	-961.34332	
4889	48.880	-800.60370	8.74242	-638.82050	769.35229	10.12447	-644.34662	-708.55640	7.57423	496.09207	733.41730	6.96534	505.88278	-14.23344	1308.07349	-961.27350	
4890	48.890	-800.48853	8.90487	-638.89075	769.45953	10.09138	-644.34161	-708.08557	7.20728	495.84085	733.43365	6.96425	505.88910	-14.19536	1308.12634	-961.36243	
4891	48.900	-800.44299	9.01809	-638.84857	769.38519	10.15745	-644.36377	-707.97388	7.09525	495.93954	733.54742	7.04542	505.88107	-14.11333	1308.24902	-961.54834	
4892	48.910	-800.51129	9.02374	-638.74280	769.46033	10.19184	-644.38123	-707.99176	7.07515	495.95746	733.60852	7.05618	505.87973	-14.16822	1308.37378	-961.79871	
4893	48.920	-800.59583	8.95751	-638.72662	769.47430	10.16446	-644.32910	-708.03711	7.01882	495.97305	733.57593	7.02839	505.88376	-14.09058	1308.38269	-961.93134	
4894	48.930	-800.61389	8.92763	-638.73682	769.47760	10.10962	-644.31970	-708.14612	7.10872	495.98523	733.47156	6.91712	505.91003	-14.09662	1308.29004	-961.99841	
4895	48.940	-800.55902	8.80411	-638.84167	769.34863	10.12952	-644.38153	-708.11945	7.08112	496.07431	733.42206	6.92350	505.94623	-14.14172	1308.20142	-961.92694	
4896	48.950	-800.51581	8.85516	-638.84845	769.45874	10.04552	-644.32477	-708.08026	7.25808	495.89996	733.53833	7.02062	505.90106	-14.09866	1308.15979	-961.84174	
4897	48.960	-800.49054	8.91303	-638.83020	769.50134	10.09252	-644.32697	-708.52649	7.80820	496.09766	733.59448	7.10680	505.84467	-14.08349	1308.17761	-961.73053	
4898	48.970	-800.56226	9.01499	-638.70599	769.42883	10.14805	-644.39056	-709.32202	8.92127	495.44943	733.56958	7.07115	505.84933	-14.13640	1308.22949	-961.70801	
4899	48.980	-800.57123	8.93277	-638.75787	769.47925	10.16424	-644.40228	-708.79150	8.03544	496.03223	733.55853	7.04310	505.85229	-14.04909	1308.14319	-961.70313	
4900	48.990	-800.54462	8.82030	-638.82947	769.41840	10.09175	-644.34796	-708.70032	7.87012	496.06860	733.19293	6.96064	506.00696	-14.13206	1308.21191	-961.77838	
4901	49.000	-800.49683	8.87236	-638.79724	769.43060	10.06362	-644.36017	-708.64282	7.89308	496.13428	733.46063	6.93431	505.93109	-14.06283	1308.19189	-961.78131	
4902	49.010	-800.53955	8.97425	-638.78571	769.36877	10.13478	-644.38794	-708.63013	7.92322	496.11475	733.53253	6.97260	505.90619	-14.08898	1308.26917	-961.80585	
4903	49.020	-800.54968	9.00920	-638.74249	769.49829	10.16315	-644.31793	-708.71509	7.95313	496.12845	733.53595	6.98216	505.88193	-14.07079	1308.29663	-961.74500	
4904	49.030	-800.59875	8.92082	-638.76898	769.39984	10.22466	-644.39117	-708.71228	7.92626	496.13568	733.52887	7.02495	505.86020	-14.13963	1308.28809	-961.62805	
4905	49.040	-800.58752	8.83290	-638.75220	769.31598	10.16832	-644.40082	-708.79126	7.98292	496.08490	733.47693	6.98829	505.86887	-14.16916	1308.17273	-961.47235	
4906	49.050	-800.50153	8.83792	-638.87482	769.35327	10.13015	-644.35339	-708.74481	8.03851	496.05789	733.49475	7.00025	505.84381	-14.14546	1308.12646	-961.46667	
4907	49.060	-800.47888	8.84540	-638.89423	769.34808	10.10783	-644.36469	-708.73450	8.01359	496.02475	733.49835	7.03420	505.85199	-14.06083	1308.12451	-961.52344	
4908	49.070	-800.50513	8.95012	-638.77747	769.39996	10.12321	-644.36115	-708.68896	7.99900	496.05243	733.61115	7.06736	505.84543	-14.13347	1308.13660	-961.69891	
4909	49.080	-800.59204	8.90418	-638.78253	769.42651	10.14431	-644.42993	-708.70099	7.98208	496.12952	733.57007	7.06818	505.86148	-14.05223	1308.23889	-961.93787	
4910	49.090	-800.61115	8.93104	-638.70770	769.41083	10.17647	-644.42328	-708.75146	7.95938	496.09454	733.56433	7.02746	505.87979	-14.09238	1308.29053	-962.06525	
4911	49.100	-800.52478	8.90734	-638.83423	769.45764	10.21623	-644.34814	-708.69116	7.92709	496.13525	733.46814	6.99804	505.89169	-13.99645	1308.30737	-962.17749	
4912	49.110	-800.47076	9.05420	-638.81372	769.32172	10.31206	-644.43567	-708.71338	7.98838	496.12384	733.16400	7.05300	506.03394	-14.05863	1308.38757	-962.09399	
4913	49.120	-800.46021	9.17594	-638.78345	769.35992	10.31711	-644.43457	-708.67236	7.91936	496.13464	733.45154	6.96345	505.91541	-14.08711	1308.41565	-961.96887	
4914	49.130	-800.55408	8.96108	-638.78802	769.42834	10.15541	-644.37164	-708.70416	8.02135	496.10175	733.53253	6.91177	505.87494	-14.10218	1308.31018	-961.70978	
4915	49.140	-800.64264	8.71965	-638.81555	769.45361	10.12642	-644.33673	-708.71356	8.03429	496.08792	733.54492	6.94288	505.88367	-14.20119	1308.14587	-961.39404	
4916	49.150	-800.63141	8.61794	-638.87897	769.47064	10.05679	-644.37891	-708.70270	7.94057	496.08908	733.55365	6.98133	505.85464	-14.12206	1308.01465	-961.17419	
4917	49.160	-800.55847	8.66710	-638.91278	769.36646	10.17021	-644.42664	-708.65961	7.94742	496.11273	733.53381	6.96842	505.87268	-14.01480	1307.94751	-961.19745	
4918	49.170	-800.51294	8.88498	-638.84192	769.42261	10.18655	-644.41174	-708.69037	8.05460	496.10150	733.56665	6.96419	505.85519	-14.07481	1308.05200	-961.41583	
4919	49.180	-800.51678	8.95532	-638.84900	769.37396	10.27722	-644.40942	-708.67523	8.07353	496.10922	733.58246	7.01550	505.84531	-14.00224	1308.17456	-961.82880	
4920	49.190	-800.63239	8.82238	-638.79175	769.42639	10.20746	-644.43396	-708.72638	8.01157	496.12451	733.51514	6.95499	505.88028	-13.99822	1308.23682	-962.25360	
4921	49.200	-800.69128	8.69893	-638.80396	769.39056	10.18599	-644.39441	-708.76855	7.93732	496.15497	733.07556	6.93513	506.04593	-13.99930	1308.29407	-962.43427	
4922	49.210	-800.59448	8.76268	-638.86505	769.40265	10.16262	-644.40881	-708.75708	7.90421	496.11386	733.45398	6.88782	505.92642	-13.93020	1308.31799	-962.49200	
4923	49.220	-800.46796	8.89213	-638.88550	769.34155	10.23259	-644.43561	-708.64764	7.91552	496.13724	733.46661	6.87333	505.92450	-13.97970	1308.39868	-962.40765	
4924	49.230	-800.47565	8.95621	-638.76538	769.41113	10.23790	-644.40009	-708.63647	7.99565	496.13153	733.58490	6.93493	505.89236	-14.05746	1308.44275	-962.24658	
